<?xml version="1.0" encoding="utf-8"?>
<!-- Generator: Adobe Illustrator 16.0.2, SVG Export Plug-In . SVG Version: 6.00 Build 0)  -->
<!DOCTYPE svg PUBLIC "-//W3C//DTD SVG 1.1//EN" "http://www.w3.org/Graphics/SVG/1.1/DTD/svg11.dtd">
<svg version="1.1" id="图层_1" xmlns="http://www.w3.org/2000/svg" xmlns:xlink="http://www.w3.org/1999/xlink" x="0px" y="0px"
	 width="407.906px" height="100.495px" viewBox="0 0 407.906 100.495" enable-background="new 0 0 407.906 100.495"
	 xml:space="preserve">
<text transform="matrix(1 0 0 1 126.0098 45.0981)" font-family="'SourceHanSansCN-Medium'" font-size="25">基士德科技股份有限公司</text>
<text transform="matrix(1 0 0 1 126.0098 72.7778)"><tspan x="0" y="0" font-family="'Helvetica-Bold'" font-size="24">GSD</tspan><tspan x="43.32" y="0.178" font-family="'FZDHTJW--GB1-0'" font-size="23"> </tspan><tspan x="54.82" y="-1.17" font-family="'Helvetica'" font-size="23">Technologies Co.,Ltd.</tspan></text>
<g>
	<path fill="#016939" d="M112.73,49.779c0,18.304-23.551,33.139-52.604,33.139c-29.069,0-52.604-14.835-52.604-33.139
		c0-18.311,23.534-33.147,52.604-33.147C89.18,16.631,112.73,31.468,112.73,49.779"/>
	<path fill="#FFFFFF" d="M53.944,28.21c0,0-16.17-2.297-18.055,12.998v21.366c0,0,0.129,5.205-3.688,8.764
		c0,0,6.478,0.747,10.956-1.782c0,0,6.354-2.93,7.354-11.076V37.117C50.511,37.117,50.138,32.419,53.944,28.21"/>
	<path fill="#FFFFFF" d="M70.881,28.21c0,0-16.184-2.297-18.083,12.998v21.366c0,0,0.113,5.205-3.682,8.764
		c0,0,6.492,0.747,10.922-1.782c0,0,6.4-2.93,7.391-11.076V37.117C67.429,37.117,67.054,32.419,70.881,28.21"/>
	<path fill="#FFFFFF" d="M87.777,28.21c0,0-16.139-2.297-18.037,12.998v21.366c0,0,0.118,5.205-3.69,8.764
		c0,0,6.474,0.747,10.942-1.782c0,0,6.352-2.93,7.365-11.076V37.117C84.357,37.117,83.965,32.419,87.777,28.21"/>
	<path fill="#016939" d="M48.623,40.066h-2.718c0,0-6.458,0.945-8.085,7.588c0,0-1.485,6.475,3.903,10.087
		c0,0,3.447,2.044,6.899,1.671v-10.52h-4.054v5.9c0,0-2.846-1.853-2.936-5.096c0,0-0.159-5.66,6.93-5.59L48.623,40.066z"/>
	<path fill="#FF0000" d="M65.489,40.122l-6.539-0.056c0,0-3.249,0.35-4.293,3.535c0,0-0.932,2.727,1.428,5.014l4.254,4.927
		c0,0,1.554,1.532-0.139,1.835h-5.6v4.035h6.324c0,0,2.589,0.162,3.998-2.359c0,0,1.584-2.621,0.051-4.918l-5.154-5.898
		c0,0-1.098-0.869-0.438-1.672c0,0,0.168-0.457,0.818-0.374h5.305L65.489,40.122z"/>
	<path fill="#0F298F" d="M74.154,40.208c4.201,0.729,6.637,3.882,6.637,3.882c3.174,3.402,1.449,8.757,1.449,8.757
		c-2.615,6.207-8.184,6.596-8.184,6.596h-2.58V40.182L74.154,40.208z M75.658,44.9v9.731c0,0,2.623-1.157,2.926-4.632
		C78.584,50,78.729,46.012,75.658,44.9"/>
</g>
</svg>
